<svg width="212" height="236" viewBox="0 0 212 236" fill="none" xmlns="http://www.w3.org/2000/svg">
<path fill-rule="evenodd" clip-rule="evenodd" d="M135.351 66.9354C196.683 -4.25981 256.536 101.05 164.908 118.107C256.536 135.906 195.944 240.474 135.351 169.278C166.386 258.272 45.9396 257.531 76.9752 169.278C15.6432 240.474 -44.2106 135.906 47.4175 118.107C-44.9496 101.05 15.6432 -3.51821 76.9752 66.9354C45.2007 -21.317 166.386 -21.317 135.351 66.9354ZM105.793 104.758C113.183 104.758 119.833 110.691 119.833 118.107C119.833 125.523 113.183 132.198 105.793 132.198C98.4042 132.198 92.4922 125.523 92.4922 118.107C92.4922 110.691 98.4042 104.758 105.793 104.758Z" fill="#EB5757"/>
</svg>
