<svg width="257" height="146" viewBox="0 0 257 146" fill="none" xmlns="http://www.w3.org/2000/svg">
<path d="M151.744 137.196C137.889 129.672 118.307 129.446 104.28 136.642C94.5913 141.613 83.6233 144.416 72.006 144.416C32.6516 144.416 0.748291 112.254 0.748291 72.5811C0.748291 32.9071 32.6516 0.746094 72.006 0.746094C84.2153 0.746094 95.7073 3.84159 105.752 9.29649C119.607 16.8206 139.189 17.0461 153.215 9.84989C162.905 4.87889 173.873 2.07639 185.49 2.07639C224.845 2.07639 256.748 34.2381 256.748 73.9111C256.748 113.585 224.845 145.746 185.49 145.746C173.281 145.746 161.789 142.651 151.744 137.196Z" fill="#219653"/>
</svg>
