<svg width="233" height="233" viewBox="0 0 233 233" fill="none" xmlns="http://www.w3.org/2000/svg">
<path d="M58.3743 0.246094C26.3418 0.246094 0.374268 26.2136 0.374268 58.2461C0.374268 90.2791 26.3418 116.246 58.3743 116.246C26.3418 116.246 0.374268 142.213 0.374268 174.246C0.374268 206.279 26.3418 232.246 58.3743 232.246C90.4073 232.246 116.374 206.279 116.374 174.246C116.374 206.279 142.341 232.246 174.374 232.246C206.407 232.246 232.374 206.279 232.374 174.246C232.374 142.213 206.407 116.246 174.374 116.246C206.407 116.246 232.374 90.2791 232.374 58.2461C232.374 26.2136 206.407 0.246094 174.374 0.246094C142.341 0.246094 116.374 26.2136 116.374 58.2461C116.374 26.2136 90.4073 0.246094 58.3743 0.246094Z" fill="#A483D0"/>
</svg>
